<svg width="48" height="61" viewBox="0 0 48 61" fill="none" xmlns="http://www.w3.org/2000/svg">
<path d="M4.6144 36.9987C-6.21162 21.3611 4.98056 0 23.9999 0C43.0193 0 54.2115 21.3611 43.3855 36.9987L28.5877 58.3733C26.3688 61.5783 21.6311 61.5783 19.4122 58.3733L4.6144 36.9987Z" fill="#A04B4B"/>
<path fill-rule="evenodd" clip-rule="evenodd" d="M6.25879 35.8603L21.0566 57.2349C22.4801 59.2911 25.5197 59.2911 26.9433 57.2349L41.7411 35.8602C51.6488 21.5491 41.406 2 23.9999 2C6.59389 2 -3.64892 21.5491 6.25879 35.8603ZM23.9999 0C4.98056 0 -6.21162 21.3611 4.6144 36.9987L19.4122 58.3733C21.6311 61.5783 26.3688 61.5783 28.5877 58.3733L43.3855 36.9987C54.2115 21.3611 43.0193 0 23.9999 0Z" fill="#F8EDEB"/>
<circle cx="24" cy="24" r="16" fill="white"/>
<path d="M18 32.0872H20.6103C20.9506 32.0872 21.2889 32.1277 21.6188 32.2086L24.3769 32.8789C24.9753 33.0247 25.5988 33.0388 26.2035 32.9214L29.253 32.3281C30.0585 32.1712 30.7996 31.7854 31.3803 31.2205L33.5379 29.1217C34.154 28.5234 34.154 27.5524 33.5379 26.9531C32.9832 26.4134 32.1047 26.3527 31.4771 26.8103L28.9626 28.6449C28.6025 28.9081 28.1643 29.0498 27.7137 29.0498H25.2855L26.8311 29.0498C27.7022 29.0498 28.4079 28.3633 28.4079 27.5159V27.2091C28.4079 26.5055 27.9156 25.892 27.2141 25.7219L24.8286 25.1417C24.4404 25.0476 24.0428 25 23.6431 25C22.6783 25 20.9319 25.7988 20.9319 25.7988L18 27.0249M14 26.6L14 32.4C14 32.9601 14 33.2401 14.109 33.454C14.2049 33.6422 14.3578 33.7951 14.546 33.891C14.7599 34 15.0399 34 15.6 34H16.4C16.9601 34 17.2401 34 17.454 33.891C17.6422 33.7951 17.7951 33.6422 17.891 33.454C18 33.2401 18 32.9601 18 32.4V26.6C18 26.04 18 25.7599 17.891 25.546C17.7951 25.3578 17.6422 25.2049 17.454 25.109C17.2401 25 16.9601 25 16.4 25H15.6C15.0399 25 14.7599 25 14.546 25.109C14.3578 25.2049 14.2049 25.3578 14.109 25.546C14 25.7599 14 26.0399 14 26.6ZM29.1914 15.5923C28.5946 14.3434 27.2186 13.6818 25.8804 14.3204C24.5423 14.959 23.9722 16.4734 24.5325 17.8028C24.8787 18.6245 25.8707 20.22 26.5781 21.319C26.8394 21.7251 26.9701 21.9282 27.161 22.0469C27.3247 22.1488 27.5297 22.2037 27.7224 22.1974C27.9471 22.1899 28.1618 22.0794 28.5911 21.8584C29.7532 21.2603 31.4101 20.3746 32.1208 19.8361C33.2707 18.9649 33.5556 17.3636 32.6947 16.1462C31.8337 14.9289 30.3327 14.8091 29.1914 15.5923Z" stroke="#140D31" stroke-width="2" stroke-linecap="round" stroke-linejoin="round"/>
</svg>
